<?xml version="1.0" encoding="UTF-8" standalone="no"?>
<svg
   xmlns:dc="http://purl.org/dc/elements/1.1/"
   xmlns:cc="http://creativecommons.org/ns#"
   xmlns:rdf="http://www.w3.org/1999/02/22-rdf-syntax-ns#"
   xmlns:svg="http://www.w3.org/2000/svg"
   xmlns="http://www.w3.org/2000/svg"
   xmlns:xlink="http://www.w3.org/1999/xlink"
   width="24"
   height="24"
   viewBox="0 0 24 24"
   fill="none"
   version="1.1"
   id="svg11">
  <metadata
     id="metadata15">
    <rdf:RDF>
      <cc:Work
         rdf:about="">
        <dc:format>image/svg+xml</dc:format>
        <dc:type
           rdf:resource="http://purl.org/dc/dcmitype/StillImage" />
        <dc:title></dc:title>
      </cc:Work>
    </rdf:RDF>
  </metadata>
  <path
     id="path842"
     style="fill:url(#linearGradient867);fill-opacity:1;stroke-width:0.999998"
     d="M 9.5898798,5.19e-4 V 9.3874012 H 14.079258 V 7.0842045 c 0,-1.0053467 0.387188,-1.7305426 1.158734,-2.1747656 0.771544,-0.444223 1.916532,-0.6649875 3.436243,-0.6649874 h 1.401326 V 5.19e-4 h -0.981784 c -0.724785,0 -1.365343,0.10352088 -1.926466,0.31394252 -0.537745,0.21042141 -1.006717,0.49123446 -1.404179,0.84193678 -0.397462,0.3507024 -0.724602,0.7596268 -0.981784,1.2272299 -0.233802,0.4442232 -0.40824,0.913196 -0.52514,1.4041796 h -0.17695 V 5.19e-4 Z M 14.079258,9.3874012 V 18.306224 H 9.5898798 V 9.3874012 H 1.1505338 V 24 H 23.106533 V 9.3874012 Z" />
  <defs
     id="defs9">
    <radialGradient
       id="paint0_radial"
       cx="0"
       cy="0"
       r="1"
       gradientUnits="userSpaceOnUse"
       gradientTransform="matrix(100.83781,90.999894,-90.999894,100.83781,-11,-33)">
      <stop
         stop-color="#AC42FF"
         id="stop4" />
      <stop
         offset="1"
         stop-color="#F15154"
         id="stop6" />
    </radialGradient>
    <linearGradient
       xlink:href="#paint0_radial"
       id="linearGradient867"
       x1="1.1316627"
       y1="2.6461613"
       x2="17.162109"
       y2="20.0625"
       gradientUnits="userSpaceOnUse"
       gradientTransform="matrix(1.4612599,0,0,1.4612599,-1.9717676,-5.3165262)" />
  </defs>
</svg>
