<svg width="203" height="205" viewBox="0 0 203 205" fill="none" xmlns="http://www.w3.org/2000/svg">
<path d="M65.8286 2.45654L77.6298 0.505527L93.2748 127.921L86.571 127.921L65.8286 2.45654Z" fill="#3A5255"/>
<path d="M170.499 16.7898L133.94 46.7951L34.1256 67.891L27.8681 42.8571L124.078 12.109L170.499 16.7898Z" fill="#3A5255"/>
<path d="M14.751 158.048C15.903 156.171 17.3963 154.699 19.231 153.632C21.1083 152.565 23.2417 152.032 25.631 152.032V161.44H23.263C20.447 161.44 18.3137 162.101 16.863 163.424C15.455 164.747 14.751 167.051 14.751 170.336V188H5.791V152.544H14.751V158.048ZM65.586 152.544L43.634 204.768H34.098L41.778 187.104L27.57 152.544H37.618L46.77 177.312L56.05 152.544H65.586ZM86.16 188.576C82.7467 188.576 79.6747 187.829 76.944 186.336C74.2133 184.8 72.0587 182.645 70.48 179.872C68.944 177.099 68.176 173.899 68.176 170.272C68.176 166.645 68.9653 163.445 70.544 160.672C72.1653 157.899 74.3627 155.765 77.136 154.272C79.9093 152.736 83.0027 151.968 86.416 151.968C89.8293 151.968 92.9227 152.736 95.696 154.272C98.4693 155.765 100.645 157.899 102.224 160.672C103.845 163.445 104.656 166.645 104.656 170.272C104.656 173.899 103.824 177.099 102.16 179.872C100.539 182.645 98.32 184.8 95.504 186.336C92.7307 187.829 89.616 188.576 86.16 188.576ZM86.16 180.768C87.7813 180.768 89.296 180.384 90.704 179.616C92.1547 178.805 93.3067 177.611 94.16 176.032C95.0133 174.453 95.44 172.533 95.44 170.272C95.44 166.901 94.544 164.32 92.752 162.528C91.0027 160.693 88.848 159.776 86.288 159.776C83.728 159.776 81.5733 160.693 79.824 162.528C78.1173 164.32 77.264 166.901 77.264 170.272C77.264 173.643 78.096 176.245 79.76 178.08C81.4667 179.872 83.6 180.768 86.16 180.768ZM132.221 188L120.189 172.896V188H111.229V140.64H120.189V167.584L132.093 152.544H143.741L128.125 170.336L143.869 188H132.221ZM164.348 188.576C160.934 188.576 157.862 187.829 155.132 186.336C152.401 184.8 150.246 182.645 148.668 179.872C147.132 177.099 146.364 173.899 146.364 170.272C146.364 166.645 147.153 163.445 148.732 160.672C150.353 157.899 152.55 155.765 155.324 154.272C158.097 152.736 161.19 151.968 164.604 151.968C168.017 151.968 171.11 152.736 173.884 154.272C176.657 155.765 178.833 157.899 180.412 160.672C182.033 163.445 182.844 166.645 182.844 170.272C182.844 173.899 182.012 177.099 180.347 179.872C178.726 182.645 176.508 184.8 173.692 186.336C170.918 187.829 167.804 188.576 164.348 188.576ZM164.348 180.768C165.969 180.768 167.484 180.384 168.892 179.616C170.342 178.805 171.494 177.611 172.348 176.032C173.201 174.453 173.628 172.533 173.628 170.272C173.628 166.901 172.732 164.32 170.94 162.528C169.19 160.693 167.036 159.776 164.476 159.776C161.916 159.776 159.761 160.693 158.012 162.528C156.305 164.32 155.452 166.901 155.452 170.272C155.452 173.643 156.284 176.245 157.948 178.08C159.654 179.872 161.788 180.768 164.348 180.768Z" fill="#3A5255"/>
<path d="M193.384 188.448C191.763 188.448 190.419 187.957 189.352 186.976C188.328 185.952 187.816 184.693 187.816 183.2C187.816 181.707 188.328 180.469 189.352 179.488C190.419 178.464 191.763 177.952 193.384 177.952C194.963 177.952 196.264 178.464 197.288 179.488C198.312 180.469 198.824 181.707 198.824 183.2C198.824 184.693 198.312 185.952 197.288 186.976C196.264 187.957 194.963 188.448 193.384 188.448Z" fill="#AB41FE"/>
</svg>
