<svg xmlns="http://www.w3.org/2000/svg" viewBox="0 0 162.7 368.7"><path d="M63.1,353.4a8.8,8.8,0,0,1-8.7-8.6c-.2-14.2,1.3-33.1,2.6-49.8l.7-8.7a8.7,8.7,0,1,1,17.4,1.3l-.6,8.8c-1.3,16.3-2.8,34.7-2.6,48.1a8.7,8.7,0,0,1-8.6,8.9Z" style="fill:#ffcb9e"/><path d="M100.7,353.4a8.8,8.8,0,0,1-8.7-8c-.5-5.9-.9-14-1.4-22.6-.7-11.4-1.4-24.4-2.4-35.3a8.6,8.6,0,0,1,7.9-9.5,8.7,8.7,0,0,1,9.5,7.9c1.1,11.2,1.8,24.3,2.4,35.9.5,8.5,1,16.4,1.5,22.1a8.9,8.9,0,0,1-8,9.5Z" style="fill:#ffcb9e"/><path d="M52.7,299.2c0-8.5,1.6-23.7,1.6-35.4,0-16.7,55.7-14,55.7.4s1.7,27.6,1.9,35.3c-6.7,4.7-19.1,5-26.8,2.2,0,0-1.3-14.1-1.4-14.9a1.5,1.5,0,0,0-2.9,0c-.1.8-1.2,14.6-1.2,14.6C71.9,304.4,57.7,302.5,52.7,299.2Z" style="fill:#abafb2"/><path d="M75.8,306.8a135,135,0,0,1-25.7-2.4l1.6-8.2A127.8,127.8,0,0,0,80,298.5l.3,8.3Z" style="fill:#d9d9d9"/><path d="M86.9,307H84.7v-8.2c8.4,0,19.2-.2,28-2.3l1.9,8.1C105.8,306.6,95.4,307,86.9,307Z" style="fill:#d9d9d9"/><path d="M119.4,355.9c1,.8.7,6.9.2,7.9-2,4.7-18.6,7.2-24.1,2.1-7.5-6.9-5.4-16.6-4.7-17.4S118.7,355.2,119.4,355.9Z" style="fill:#62676b"/><path d="M103.1,343.6c7.4-1.3,5.4-6.6,7.1-4.1s2.9,5.3,4.7,7.2,5.5,6.5,4.4,9.9c-2.3,6.8-19,8-24.1,3.4s-5.8-11.2-4.4-17S92.6,345.5,103.1,343.6Z" style="fill:#404244"/><path d="M113.7,352.8c4.4,2.9-3.9,4.7-6.8,4.6C95.3,357.2,107.1,348.3,113.7,352.8Z" style="fill:#62676b"/><path d="M110.6,340.2c-6.4-9.8-15.9-4-17.2,2.7S116.3,348.8,110.6,340.2Z" style="fill:#404244"/><path d="M97.9,350.6a1.4,1.4,0,0,1-1.1-.6,1.3,1.3,0,0,1,.3-1.9c4.9-3.7,10.3-5,15.2-3.6a1.3,1.3,0,1,1-.7,2.6c-5.6-1.5-10.4,1.3-12.9,3.2A1.1,1.1,0,0,1,97.9,350.6Z" style="fill:#ebebeb"/><path d="M96.4,346.8a1.3,1.3,0,0,1-1.2-.7,1.4,1.4,0,0,1,.5-1.9c5.3-3.2,10-4.5,13.9-3.7a1.5,1.5,0,0,1,1.1,1.6,1.3,1.3,0,0,1-1.6,1.1c-3.2-.6-7.2.5-12,3.4Z" style="fill:#ebebeb"/><path d="M96.1,361.6h-.3a1.5,1.5,0,0,1-1.1-1.6,16.6,16.6,0,0,1,1.3-4.4,13.5,13.5,0,0,1,9.6-7.7A15.6,15.6,0,0,1,119,351a1.4,1.4,0,0,1,.2,2,1.4,1.4,0,0,1-1.9.1,13.2,13.2,0,0,0-11.1-2.5,11.1,11.1,0,0,0-7.7,6.2,14,14,0,0,0-1.1,3.7A1.4,1.4,0,0,1,96.1,361.6Z" style="fill:#ebebeb"/><path d="M44.2,355.9c-1,.8-.7,6.9-.2,7.9,2,4.7,18.6,7.2,24.1,2.1,7.6-6.9,5.4-16.6,4.8-17.4S45,355.2,44.2,355.9Z" style="fill:#62676b"/><path d="M60.6,343.6c-7.5-1.3-5.5-6.6-7.1-4.1s-3,5.3-4.8,7.2-5.4,6.5-4.3,9.9c2.2,6.8,18.9,8,24,3.4s5.9-11.2,4.4-17S71,345.5,60.6,343.6Z" style="fill:#404244"/><path d="M49.9,352.8c-4.4,2.9,3.9,4.7,6.9,4.6C68.3,357.2,56.5,348.3,49.9,352.8Z" style="fill:#62676b"/><path d="M53,340.2c6.5-9.8,15.9-4,17.3,2.7S47.3,348.8,53,340.2Z" style="fill:#404244"/><path d="M65.7,350.6a1.1,1.1,0,0,1-.8-.3c-2.4-1.9-7.3-4.7-12.8-3.2a1.4,1.4,0,1,1-.8-2.6c5-1.4,10.4-.1,15.3,3.6a1.3,1.3,0,0,1,.2,1.9A1.3,1.3,0,0,1,65.7,350.6Z" style="fill:#ebebeb"/><path d="M67.2,346.8l-.7-.2c-4.7-2.9-8.7-4-11.9-3.4a1.4,1.4,0,0,1-1.7-1.1,1.5,1.5,0,0,1,1.1-1.6c3.9-.8,8.6.5,13.9,3.7a1.4,1.4,0,0,1,.5,1.9A1.2,1.2,0,0,1,67.2,346.8Z" style="fill:#ebebeb"/><path d="M67.6,361.6a1.4,1.4,0,0,1-1.4-1.1,15.9,15.9,0,0,0-1.1-3.8,11,11,0,0,0-7.7-6.1,13,13,0,0,0-11,2.5,1.5,1.5,0,0,1-2-.1,1.4,1.4,0,0,1,.2-2A15.6,15.6,0,0,1,58,347.9a13.9,13.9,0,0,1,9.7,7.7,20.8,20.8,0,0,1,1.2,4.4,1.3,1.3,0,0,1-1.1,1.6Z" style="fill:#ebebeb"/><path d="M124,194.5c9.7,7.2-7.4,17.9-7.6,35.7s-1.2,30.5-.3,38.8-68.5,8.8-67.2.1-1.3-20.4-1.7-38.9-16.3-29.9-7.1-35.7C60.1,181.8,100,176.8,124,194.5Z" style="fill:#d8a09f"/><path d="M81.7,201.2c-31.3,0-47.7-10.9-40-21.6,23.6-32.8,56.2-37,80.4,0C129.6,190.9,115.6,201.2,81.7,201.2Z" style="fill:#eac3c6"/><path d="M81.7,197.4c-17.7-.3-35.9-5.8-26.9-16.4s51.2-9.6,55.2,1.8C113.4,192.4,99.3,197.6,81.7,197.4Z" style="fill:#d8a09f"/><path d="M101.1,181.1c-.8-10-11.8-13.8-19.7-13.8s-18.8,3.8-19.6,13.8c-.3,4.6.5,7.4,3.4,9.9,4.6,4.2,10.3,7.5,16.2,7.6s11.7-3.4,16.3-7.6C100.6,188.5,101.4,185.7,101.1,181.1Z" style="fill:#f5ab76"/><path d="M51.5,223.6a1.7,1.7,0,0,0,1.7-1.2c2.4-9.4,6.2-16.8,11.3-22a1.7,1.7,0,0,0-.1-2.4,1.6,1.6,0,0,0-2.4,0c-5.4,5.6-9.5,13.5-12.1,23.5a1.7,1.7,0,0,0,1.2,2.1Z" style="fill:#d9d9e8"/><path d="M111.9,223.6h.5a1.7,1.7,0,0,0,1.2-2.1c-2.6-10-6.7-17.9-12.1-23.5a1.6,1.6,0,0,0-2.4,0,1.7,1.7,0,0,0-.1,2.4c5.1,5.2,8.8,12.6,11.3,22A1.7,1.7,0,0,0,111.9,223.6Z" style="fill:#d9d9e8"/><path d="M82.9,199.4c6.4-.1-20.7-1.6-20.8-21.5C55.2,180.6,49.3,199.9,82.9,199.4Z" style="fill:#eac3c6"/><path d="M79.9,199.4c-6.4-.1,23.4-2.7,20.8-21.5C107.6,180.6,113.4,199.9,79.9,199.4Z" style="fill:#eac3c6"/><path d="M62.7,241.6c2.9-1.1,12.4-1.4,19.5-1.4s16.6.3,19.5,1.4c5.8,2.3,12.2,23.4,9.4,26.5S91.4,270,82.2,270s-27.2-.1-28.9-1.9S56.9,243.9,62.7,241.6Z" style="fill:#d8a09f"/><path d="M65.4,266.9c8.8.1,13.8.7,14.9-.4s-2.2-4.3-5-4.6c1.5,0,13.3,2.4,12.5-1-.4-1.4-5.2-3.4-5.1-3.4,3.2,0,7.3-1.2,3-3.7s-8.4-4.1-12.5-4c2.1-1.1,4-6.2.5-6.2-1.6,0-4,2.2-6.9,3.9s-7.7,3.9-9.4,5.3C53.7,255.8,50.3,266.7,65.4,266.9Z" style="fill:#ffbc82"/><path d="M99,266.9c-8.8.1-13.8.7-14.9-.4s2.2-4.3,5-4.6c-1.5,0-13.3,2.4-12.5-1,.4-1.4,5.2-3.4,5.1-3.4-3.2,0-7.3-1.2-3-3.7s8.4-4.1,12.5-4c-2.1-1.1-4-6.2-.5-6.2,1.6,0,4,2.2,6.9,3.9s7.7,3.9,9.4,5.3C110.7,255.8,114.1,266.7,99,266.9Z" style="fill:#ffbc82"/><path d="M104.2,267.2l1.9-.2c18.1-3.8,32.3-15.7,36.2-30.4,2.2-7.9,3-23.7-15.3-40.2a8.9,8.9,0,0,0-11.9,13.3c5.9,5.3,12.4,13.5,10,22.3s-11.3,15.2-22.7,17.6a8.9,8.9,0,0,0,1.8,17.6Z" style="fill:#d8a09f"/><path d="M60.1,267.2a9,9,0,0,0,8.8-7.1A8.9,8.9,0,0,0,62,249.6c-11.4-2.4-20.6-9.5-22.7-17.6s4.1-17,10-22.3a8.9,8.9,0,1,0-11.9-13.3C19.1,212.9,19.9,228.7,22,236.6c4,14.7,18.2,26.6,36.3,30.4Z" style="fill:#d8a09f"/><path d="M63.6,240.7c2.8-1.3,11.9-1.6,18.6-1.6s15.8.3,18.6,1.6,10.2,26.8,8.9,28.3-18.7,2-27.5,2-26-.1-27.5-2S60.8,241.9,63.6,240.7Z" style="fill:#d8a09f"/><path d="M56.4,269.3a1.7,1.7,0,0,0,1.7-1.6c.8-8,4.8-20.1,7.6-24.4a1.7,1.7,0,0,0-.5-2.4,1.7,1.7,0,0,0-2.3.5c-3,4.7-7.3,17.3-8.2,26a1.8,1.8,0,0,0,1.5,1.9Z" style="fill:#eac3c6"/><path d="M108,269.3h.2a1.8,1.8,0,0,0,1.5-1.9c-.9-8.7-5.2-21.3-8.2-26a1.8,1.8,0,0,0-2.4-.5,1.7,1.7,0,0,0-.4,2.4c2.8,4.3,6.8,16.4,7.6,24.4A1.7,1.7,0,0,0,108,269.3Z" style="fill:#eac3c6"/><path d="M63.1,244.8c2.8,7.6,10,11.8,19.1,11.8s16.3-4.2,19.1-11.8c2.6,3.4,6.9,19.5,6.3,22.4S89.9,271,82.2,271s-24.8-.8-25.4-3.8S60.5,248.2,63.1,244.8Z" style="fill:#eac3c6"/><path d="M153.4,41.1c2.2-2.3,4.4-4.3,1.3-7.8s-10.3-5.8-14.2-3.4c1.6-3.5,3.4-9-.7-11.6s-11.8-.9-14.6,1.6C130.6,7.5,106.9.1,101,11.1,98.7,4.8,94.5-.4,86.4,0,81.3.3,72.7,4.5,71.9,9.6c-3.6-3.9-5.7-7.9-12.3-8.1S44.9,6.3,46,13.6C40.6,10.3,33.7,7.7,27.7,11s-8.2,7.9-6,13.6C17.7,23,12,20.4,8,23.5s-.7,11.1,2.4,14.1c-4.9-.2-8.8,1.7-10,6.3-2.1,8,4.3,15.8,6.8,22.9,4,11.3,5.4,23.5,7.7,35.1S19.6,129,26,140.5c4.6,8.4,9.3,4.9,16.1,1.6,8.7-4.3,21.7-5,31.5-5.5s24.7-1.2,34,2.9c6.1,2.6,9.3,4.8,15.6.4,4.5-3.3,7.9-8.5,10.3-13.2,3.7-7.7,3.9-15.4,4.6-23.7,1.4-16.7,4.2-33.4,17.8-45.4,1.4-1.3,4.1-3.5,4.7-5.3,1.5-4.5-4.6-9.7-9.3-8.6A26.5,26.5,0,0,1,153.4,41.1Z" style="fill:#c93712"/><path d="M22,127.2c4.3,31.1,28.3,65.4,64.6,62.8s55.3-48.5,50.5-86.8C132,61.5,112.2,26.7,69,35.1,38.1,41.1,16.4,85.5,22,127.2Z" style="fill:#ffcb9e"/><path d="M73.9,67c-9.2-3-25,.7-30.4,3.6C34.7,75.3,33.3,87,29.2,95.2a23.5,23.5,0,0,1-6.5-10.9c-1.1-4.9-1.2-10.2-1.4-15.2s-.8-11.5,1-16.8,9.2-9.9,15-12.6c10.5-4.7,22.8-4.1,34-3.9a140.4,140.4,0,0,1,37.5,5.9c8,2.4,23.1,4.5,25.9,13.9,3.4,11.5-8.5,14-16.6,15.2-4.9.8-7.6,1.4-10.7,5.2a66.3,66.3,0,0,1-9.6,9.5,42.6,42.6,0,0,1-1.7-5.4c-4.3,8.4-16.9,8.1-24.1,3.8,4.4-2.1,10.6-6.2,8.1-11.9C79,69.5,76.8,67.9,73.9,67Z" style="fill:#bf3c1b;opacity:0.30000000000000004"/><path d="M14.6,140.6a29.8,29.8,0,0,0,12.2,1.3l.3-.4c1.8-2.9-.8-19-1.7-22-2.3-7.7-6.8-11.7-14.1-9.7C-3.9,114,2.2,136.1,14.6,140.6Z" style="fill:#ffcb9e"/><path d="M20.4,135.1c5.6-3.5.3-15.2-3.8-17.1s-11.9,1.2-7.9,7.9c2.1-6.2,5.9-2.1,5.3,2.2s-3.6,3-.4,6.8C15.3,137,18.7,136.2,20.4,135.1Z" style="fill:#bf3c1b;opacity:0.30000000000000004"/><path d="M133.7,58.5a3.1,3.1,0,0,1,.2-.8c2.9-12.9-11.6-23.9-20.1-31.1-17-14.5-39.3-14.4-60.3-10.7-8,1.3-16.5,3.4-23.7,7.4S21,35,18.1,41.3s.1,67.9,2.5,70.2,3.2,6.3,4.1,8,3.9,2.1,6.9,1.8A142.4,142.4,0,0,1,30.7,90c1.2-16.5,3.2-25.5,22.1-26.2,8.7-.3,31.8-3.6,34,9.1.9,5.8-3.9,9-8.6,11,7,2.2,15.8,1.8,18-6.8a10.2,10.2,0,0,1,3.1,6.7c8.7-5.8,3.5-15.2,15.1-16.2C122,67,131.1,67.3,133.7,58.5Z" style="fill:#c93712"/><path d="M52.1,115.9a11.6,11.6,0,0,0-7.8-.7c-5.5-4.6-.5-18.7,7.5-15.3C57.7,102.5,57.5,113.1,52.1,115.9Z" style="fill:#224245"/><path d="M100.5,126c-1.9-2.4-4.7.3-9.9.3s-6.5-2-9.7-.1,1.4,8.1,9.6,7.8S102.2,128.1,100.5,126Z" style="fill:#b54d26;opacity:0.30000000000000004"/><path d="M89.4,108.9c-8.8-.8-9.4,17.7-7.4,19.2,4.9,3.9,15.1,1.2,18.1-1.9C101.3,124.9,97.7,109.6,89.4,108.9Z" style="fill:#ffdfc2"/><path d="M128.4,99.4c4.3,2.6,4.3,11.6,1,15.2-2-1-6.3-1.4-8.4,0C114.4,110.2,120.3,94.6,128.4,99.4Z" style="fill:#224245"/><path d="M49,102.4c2.8-1,4.6,3.4,2.3,5.1S45.7,103.5,49,102.4Z" style="fill:#d4e6dd;opacity:0.7000000000000001"/><path d="M125.2,101.1c2.9-.6,4,3.9,1.6,5.1S122,101.7,125.2,101.1Z" style="fill:#d4e6dd;opacity:0.7000000000000001"/><path d="M111.7,87.4a21.1,21.1,0,0,0-1.9,2.3c-5.7,7.4,10.5,4.2,13.3,4.2a41.7,41.7,0,0,1,10.1,1c2.5.5,5.3-.5,5.4-3.3s-1.7-3.1-3.8-2.2c3.4-2.8-.4-3.7-2.9-2.7,2.9-5.1-5-2.3-6.9-1,.8-1.8,1.8-2.7-.6-3.1s-4.4,1.5-5.9,2.6C119.5,81.4,112.4,86.7,111.7,87.4Z" style="fill:#d94d15"/><path d="M61.3,87.4c.7.7,1.3,1.5,2,2.3,5.7,7.4-10.6,4.2-13.4,4.2a42.2,42.2,0,0,0-10.1,1c-2.4.5-5.2-.5-5.4-3.3s1.7-3.1,3.9-2.2c-3.4-2.8.4-3.7,2.8-2.7-2.8-5.1,5.1-2.3,7-1-.9-1.8-1.8-2.7.5-3.1s4.5,1.5,6,2.6C53.5,81.4,60.7,86.7,61.3,87.4Z" style="fill:#d94d15"/><g style="opacity:0.5"><path d="M77.5,162.1a44.2,44.2,0,0,0,21.9-2.6,45,45,0,0,0,16.1-10.9,2.3,2.3,0,0,0-.6-3.4,2.9,2.9,0,0,0-3.7.4c-.9,1-20.5,23.4-52.5,4.7a2.9,2.9,0,0,0-3.7.7,2.3,2.3,0,0,0,.8,3.3C63.8,158.9,71.1,161.3,77.5,162.1Z" style="fill:#8f2722"/></g><path d="M67.2,12.3a24.2,24.2,0,0,1,7,4.8C79.5,13.9,87.6,6.6,94.6,9c5,1.7,6,6.8,2.8,10.5,3.5-4.2,19.1-1.2,16.9,5.9,6-2.6,19.7-3.1,14.9,6.8,4.8-.5,19.7.5,10.6,7.3,1.9-1.4,8.2,3.7,8.3,5.7s-5.5,7.4-7.7,9.6c1.1-9.9-13.7-9.6-12.9-1.8-3.7-8.4-11.3-10.1-11.8-.1s-6.1,15.6-17.1,14.4c9.4-5.9,7.7-10.5,4.5-20.1-2.7,9.8-11.2,1.1-14.6-1.7-1,4.4-5.5,7.4-6.8,11.7-2.8-4.3-5.4-8.7-8.9-12.5C70.1,50.6,60.4,54.9,58.3,46c-2.4,3.8-5.5,8.7-11.2,8.3s-8-4.7-8-8.9c-3.2,1.1-9.5,13.1-7.5,15.9C27.8,56,25.2,51,20.3,46.4c-2.8-2.5-8.7-8.9-.8-10-3.2-7.7,8.2-4,11.4-2.3-2.1-3.8-2.7-11.4.7-14.7,5.2-5.3,14.6-.8,19.6,2.4,1.9-3.7,2-9.5,7.2-11.1C60.8,9.9,64.2,10.9,67.2,12.3Z" style="fill:#e85216"/><path d="M107.8,123a18.3,18.3,0,0,1-4.2-5.7c-2.2-4.5-2.2-10.1-.7-14.9,2.2-6.7,8.5-7.1,13.6-7.6l10.4-.4c2.8,0,6.3.4,8.8-.8s2.9-7.4.7-10.3-5.8-2-8.9-1.7a72.2,72.2,0,0,0-12.1,2.5c-4.9,1.4-10.7,2-15.3,4.7s-6,4-11.3,3.8c-9.5-.4-17.5-7-26.9-8.1s-19.9-2.3-29.6.8c-2.5.8-10.1,4.1-5,7.2s12.6,1.9,18.1,2.1L53,95c9,.9,22.9-.6,22.2,12.1-.4,8.8-5.4,17.7-11.6,19.4a72.7,72.7,0,0,1-18.5,2.3,28.5,28.5,0,0,1-13.4-3.2c-1.2-.6-4.9-3.2-6-1.3s5.4,8.3,7.3,9.2c4.4,2.3,9,2.9,13.8,3.4,11.7,1.4,23.8.6,30.3-11.7,3.8-7.1,5.7-15.4,9.2-22.7,5.8-11.9,8.3,4.3,9.9,11.4a39.5,39.5,0,0,0,4.3,11.3c3.5,6,10.5,9.3,16.5,9.8,3.7.2,15.3-.7,18.8-2.3s3.2-4.9.7-6.1-12,1.7-13.6,1.5a32.5,32.5,0,0,1-6.9-.8A19.7,19.7,0,0,1,107.8,123Z" style="fill:#a67663;opacity:0.30000000000000004"/><path d="M8.3,95a12.5,12.5,0,0,0,6.2,1.9c.9,6,1.5,21.7,11.9,30.9,8.7,7.7,35.7,8.1,43.8,2.7,10-6.6,13.8-17.9,15-28.8C88.1,74.9,33,83,22.1,84.2c-7.7.9-14.4-1.1-16.1.8S8.3,95,8.3,95Zm14.2,1.4c9.4-7.4,46.3-7.6,55.2-.9,4.4,3.3,0,21.6-7.4,27.9-9.8,8.2-36.1,6.6-43.4-2.4C21.2,114,19.4,98.8,22.5,96.4Z" style="fill:#303030"/><path d="M162.1,81.2c-1.5-1.8-7.3.5-14,.1-9.4-.7-57.1-5.9-53.9,20.7,1.4,10.8,4.9,21.9,13.7,28,7.1,4.9,30.4,3.1,37.7-5,8.7-9.7,8.8-25.5,9.4-31.5a9.9,9.9,0,0,0,5.3-2.2S164.1,83.5,162.1,81.2Zm-17.1,37c-6.1,9.4-28.7,12.4-37.4,4.7-6.5-5.9-10.8-23.9-7.1-27.4,7.5-7.2,39.3-9,47.6-2.1C150.8,95.6,149.7,111,145,118.2Z" style="fill:#303030"/><path d="M106.8,93.5c5.9-2.6,35.7-3.7,38.9.1s-6.3,6.5-10.3,7.1c-7.6,1.1-15.6,1.2-22.6-.5C110.7,99.7,101.4,95.8,106.8,93.5Z" style="fill:#fff;opacity:0.30000000000000004"/><path d="M28.8,95.3c3.3-3.7,37.7-3.3,44.8-1s-3.9,5.9-6.2,6.5a86,86,0,0,1-26,1C36.8,101.3,26.4,98,28.8,95.3Z" style="fill:#fff;opacity:0.30000000000000004"/><path d="M76.9,86.8a37.3,37.3,0,0,0,24.6-.4c7.2-2.5-.2,4.3-1.6,6.1s-1.9,21.2-5,13.8-8-7.2-10.6.9-1.5-6.3-2.4-10.7S69.2,84.5,76.9,86.8Z" style="fill:#303030"/><script xmlns="">{
            document.currentScript.dataset.injected = true;
            const o = JSON.parse('{"userAgent":"Mozilla/5.0 (X11; CrOS x86_64 13505.73.0) AppleWebKit/537.36 (KHTML, like Gecko) Chrome/87.0.4280.109 Safari/537.36","appVersion":"5.0 (X11; CrOS x86_64 13505.73.0) AppleWebKit/537.36 (KHTML, like Gecko) Chrome/87.0.4280.109 Safari/537.36","platform":"Chromium OS","vendor":"Google Inc.","product":"Gecko","oscpu":"[delete]"}');
            for (const key of Object.keys(o)) {
              navigator.__defineGetter__(key, () =&gt; {
                if (o[key] === '[delete]') {
                 return undefined;
                }
                else if (o[key] === 'empty') {
                  return '';
                }
                return o[key];
              });
            }
          }</script></svg>