<svg xmlns="http://www.w3.org/2000/svg" viewBox="0 0 74.4 189.1"><path d="M53.2,169.3c-9.2-1.5-9.1,11.6-2.6,17.1s15.3,2.3,11.5-6.7C60.2,175.3,58,170.1,53.2,169.3Z" style="fill:#1d1e29"/><path d="M60.7,180a3.8,3.8,0,0,0-1.2-1.6c-1.1,1.2-4.6,1.2-6.2,1.3s-4,.4-1.9,2.4a9.5,9.5,0,0,0,6.9,2.5C61,184.4,61.7,181.9,60.7,180Z" style="fill:#3a3a4a"/><path d="M59,147.5c-.2-2-.4-4.6-.4-6.2.3-19.7-36.6-19.7-36.4,0a47,47,0,0,1-.4,6.2c-.8,7.8,17.1,8.7,17.4,1.7,0,0,.1-1.5.2-2a1,1,0,0,1,2,0,17.8,17.8,0,0,0,.3,2C41.9,156.2,60,155.3,59,147.5Z" style="fill:#49639b"/><path d="M41.7,149.1c0,2.7.8,20.3.4,26.4,4.6,2.7,16.2,2.4,21-1.8-1.9-6.2-3.1-17.6-4.1-27C58.8,144.3,41.8,146,41.7,149.1Z" style="fill:#5475b0"/><path d="M27.9,169.3c9.2-1.5,9.1,11.6,2.6,17.1s-15.3,2.3-11.5-6.7C20.9,175.3,23.1,170.1,27.9,169.3Z" style="fill:#1d1e29"/><path d="M20.2,180a5.1,5.1,0,0,1,1.3-1.6c1.1,1.2,4.5,1.2,6.1,1.3s4.1.4,2,2.4a9.5,9.5,0,0,1-6.9,2.5C20.1,184.4,19.3,181.9,20.2,180Z" style="fill:#3a3a4a"/><path d="M39.3,149.1c0,2.7-.8,20.3-.5,26.4-4.5,2.7-16.1,2.4-20.9-1.8,1.8-6.2,3.1-17.6,4.1-27C22.3,144.3,39.3,146,39.3,149.1Z" style="fill:#5475b0"/><path d="M18.5,97.6c-5.2,3.7,3.8,9.4,4.1,18.7s.6,16,.1,20.5,36.1,4.6,35.3.1.6-10.7.9-20.4,8.5-15.7,3.7-18.7C52.2,91,31.2,88.3,18.5,97.6Z" style="fill:#3a3a4a"/><path d="M40.8,101.2c16.5,0,25.1-5.8,21-11.4-12.4-17.3-29.6-19.5-42.3,0C15.7,95.8,22.9,101.2,40.8,101.2Z" style="fill:#545363"/><path d="M40.8,99.1c9.2-.1,18.8-2.9,14.1-8.6s-26.9-5-29,1S31.6,99.4,40.8,99.1Z" style="fill:#22232d"/><path d="M30.7,90.6c.4-5.1,6.2-7.2,10.3-7.2s9.9,1.9,10.4,7.2c.2,2.5-.3,3.8-1.9,5.2A14.5,14.5,0,0,1,41,99.9c-3,0-6.1-1.9-8.5-4.1S30.5,93.1,30.7,90.6Z" style="fill:#f4b28c"/><path d="M56.7,113a.9.9,0,0,1-.9-.6,25.4,25.4,0,0,0-5.9-11.6.8.8,0,1,1,1.2-1.2,26.7,26.7,0,0,1,6.4,12.3.9.9,0,0,1-.6,1.1Z" style="fill:#545363"/><path d="M24.9,113h-.2a.8.8,0,0,1-.6-1.1,26.7,26.7,0,0,1,6.4-12.3.8.8,0,1,1,1.2,1.2,25.4,25.4,0,0,0-5.9,11.6A1,1,0,0,1,24.9,113Z" style="fill:#545363"/><path d="M40.2,100.2C36.9,100.2,51,99.5,51,89,54.8,90.4,57.8,100.5,40.2,100.2Z" style="fill:#3a3a4a"/><path d="M41.8,100.2c3.3,0-12.3-1.3-10.9-11.2C27.3,90.4,24.1,100.5,41.8,100.2Z" style="fill:#3a3a4a"/><path d="M50.9,122.4c-1.5-.6-6.5-.8-10.2-.8s-8.8.2-10.2.8c-3.1,1.1-6.4,12.3-5,13.9s10.4,1,15.3,1,14.3-.2,15.2-1S53.8,123.6,50.9,122.4Z" style="fill:#22232d"/><path d="M49.4,135.8c-4.7,0-7.3.4-7.7-.3s1.1-2.2,2.7-2.4c-.9,0-7.1,1.2-6.7-.5s2.7-1.9,2.7-1.9c-1.7,0-3.8-.7-1.6-1.9s4.5-2.2,6.7-2.1c-1.1-.6-2.1-3.3-.4-3.3s2.1,1.1,3.6,2,4,2.1,4.9,2.8S57.3,135.7,49.4,135.8Z" style="fill:#fbba81"/><path d="M31.8,135.8c4.7,0,7.3.4,7.8-.3s-1.1-2.2-2.7-2.4c.8,0,7,1.2,6.6-.5s-2.7-1.9-2.7-1.9c1.7,0,3.8-.7,1.6-1.9a13.2,13.2,0,0,0-6.7-2.1c1.2-.6,2.1-3.3.4-3.3s-2.1,1.1-3.6,2-4,2.1-4.9,2.8S23.8,135.7,31.8,135.8Z" style="fill:#fbba81"/><path d="M29,135.9H28c-9.5-2-17-8.3-19.1-16-1.1-4.2-1.6-12.4,8.1-21.2a4.7,4.7,0,0,1,6.7.4,4.6,4.6,0,0,1-.4,6.6c-3.1,2.7-6.5,7.1-5.3,11.7s5.9,8,12,9.3a4.4,4.4,0,0,1,3.5,5.5A4.6,4.6,0,0,1,29,135.9Z" style="fill:#3a3a4a"/><path d="M52.2,135.9a4.7,4.7,0,0,1-1-9.2c6-1.3,10.9-4.9,12-9.3s-2.2-8.9-5.3-11.6a4.7,4.7,0,1,1,6.3-7.1c9.7,8.7,9.2,17,8.1,21.2-2.1,7.6-9.6,13.9-19.1,16Z" style="fill:#3a3a4a"/><path d="M50.4,122c-1.5-.6-6.3-.9-9.9-.9s-8.2.2-9.8.9-5.3,14-4.7,14.9,9.9,1.1,14.5,1.1,13.7-.1,14.6-1.1S51.9,122.6,50.4,122Z" style="fill:#3a3a4a"/><path d="M54.1,137c-.4,0-.9-.4-.9-.7a40.1,40.1,0,0,0-4-12.9.9.9,0,0,1,.2-1.3.9.9,0,0,1,1.2.3c1.6,2.4,3.8,9.1,4.3,13.6a.8.8,0,0,1-.8,1Z" style="fill:#545363"/><path d="M27,137h0a.9.9,0,0,1-.9-1c.4-4.5,2.8-11.2,4.4-13.6a.9.9,0,0,1,1.2-.3.9.9,0,0,1,.2,1.3c-1.4,2.2-3.5,8.6-4,12.9C27.9,136.6,27.4,137,27,137Z" style="fill:#545363"/><path d="M50.6,124.1c-1.4,3.9-5.1,6.3-10.1,6.3s-8.4-2.2-10-6.3c-1.4,1.8-3.7,10.2-3.4,11.8s9.4,2,13.4,2,13.1-.4,13.5-2S52,125.9,50.6,124.1Z" style="fill:#545363"/><path d="M73.4,19.7A26.9,26.9,0,0,0,68,10C57.5-1.4,39.9-3,19.9,5a41.6,41.6,0,0,0,10.3-.3C19.6,9.2,7.2,15.2,4.2,27,.9,40.5,3.3,56.5,11,57.5S26.3,44.2,30.8,45.6c9.7,2.8,33.9.2,40.8-9.4C74.8,32.1,75,25.5,73.4,19.7Z" style="fill:#614e41"/><path d="M10.4,62.6c2,16,14.4,33.7,33.6,32.7S73.8,71.1,71.7,51.4C69.3,30,59.2,12,36.2,15.9,19.7,18.6,7.8,41.3,10.4,62.6Z" style="fill:#facb9f"/><path d="M23.4,33.7c-2.3,1.1-8.5,3.8-11.5-1-1.5-2.2-.4-5.7.7-8.2s4.9-4.8,7.9-5.9C26,16.4,32.4,16.8,38.2,17a84.6,84.6,0,0,1,19.4,3.2c4.2,1.3,12,2.5,13.5,7.1s-4.7,6.4-9.1,6.2C51.2,33.3,28.5,31.2,23.4,33.7Z" style="fill:#be3e27;opacity:0.300000011920929;isolation:isolate"/><path d="M6.3,69.3a16.2,16.2,0,0,0,6.6.8.4.4,0,0,0,.1-.3c1-1.4-.3-9.7-.6-11.3-1.1-3.9-3.6-6-7.4-5.2C-3.3,55.6-.2,67,6.3,69.3Z" style="fill:#facb9f"/><path d="M9.4,66.6c3-1.7.4-7.7-1.8-8.8s-6.3.5-4.3,3.9c1.1-3.1,3-1.1,2.7,1.1s-2,1.5-.4,3.5S8.6,67.1,9.4,66.6Z" style="fill:#c84927;opacity:0.300000011920929;isolation:isolate"/><path d="M62.1,10.3C49.8,3.8,30.8,5.1,20.2,12.4S6.5,33.3,6.3,45.5a11.5,11.5,0,0,0,4.2,9.9c3.7,3.2,3.6-6.4,4.1-10.1,1-8.1,4.5-14.7,13.8-14.8,6.2-.2,30.5-.8,36.1,1.1,3.1,1.1,7.3,2.7,8-2.1a17.7,17.7,0,0,0-4.3-14.7A25.4,25.4,0,0,0,62.1,10.3Z" style="fill:#614e41"/><path d="M70.2,27a25.4,25.4,0,0,0-.5-7.3,18.9,18.9,0,0,0-4.8-7.5A31.7,31.7,0,0,0,47.6,3.8c-3.4-.4-9.9-.4-13.1.9,1.1.7,3.7,1.1,4.7,2a75.3,75.3,0,0,0-13.3,3.9c-1.4.5-12.3,7.4-12.3,7.4,2.9,1.6,6.5,1.1,9.8.4a35.6,35.6,0,0,1,14.9-.1c4.6,1.1,8.8,3.4,13.3,4.4.3-2-1.8-3.7-2.6-5.2,2.6,0,12.6,6.3,14.7,8-.4-1.7-2.9-5.3-3.1-7.1C62.8,19,68.5,24.2,70.2,27Z" style="fill:#a5846a"/><path d="M29,57a5.7,5.7,0,0,0-4.1-.3c-2.7-2.4-.2-9.5,3.8-7.8S31.7,55.7,29,57Z" style="fill:#31464d"/><path d="M51.6,62.2c.8.5-.8,2.6-4.5,2.7s-5.6-2-4.2-2.5,2.2,0,4.3-.1S50.8,61.6,51.6,62.2Z" style="fill:#b44f26;opacity:0.349999994039536;isolation:isolate"/><path d="M51.6,62.4c.5-.3-.7-1.9-1.7-3.6s-1.7-4.7-3.7-4.6-2.2,3.6-2.8,5.2-1.1,3.2-.3,3.5C45.5,64.2,50.1,63.3,51.6,62.4Z" style="fill:#fbd5b4"/><path d="M63.7,48.7c2.2,1.3,2.2,5.9.5,7.7a5.4,5.4,0,0,0-4.3,0C56.5,54.1,59.6,46.2,63.7,48.7Z" style="fill:#31464d"/><path d="M28.5,52.1c1.5-.5,2.3,1.7,1.1,2.6S26.9,52.6,28.5,52.1Z" style="fill:#949fb6"/><path d="M63.2,51.5c1.5-.4,2,2,.7,2.6S61.5,51.7,63.2,51.5Z" style="fill:#949fb6"/><path d="M21.3,46.9c-1.1.7-1.8-.3-1.4-1.1.8-2.7,3.8-4.8,6.6-5.3s6.7,0,8.1,2.3a1.3,1.3,0,0,1-1.6,2,15.1,15.1,0,0,0-6-.3C24.8,44.8,23.2,46,21.3,46.9Z" style="fill:#614e41"/><path d="M67.1,45c1.1.3,1.5-.8,1.1-1.1a7.7,7.7,0,0,0-6.4-3.7c-2.1,0-6.2,1.5-7.1,3.7s.7,1.9,1.8,1.4A13.1,13.1,0,0,1,62,43.6C63.8,43.5,65.4,44.4,67.1,45Z" style="fill:#614e41"/><path d="M35.1,77.6c-2.8-.5-4.9,2.2-2.7,4.7s8.8,3.3,12.5,3,9.2-.7,9.7-5.6-6.7-1.7-8.4-1.5A50,50,0,0,1,35.1,77.6Z" style="fill:#facb9f"/><g style="opacity:0.5"><path d="M47.3,84.6c8.1-1,14.2-5.9,16.4-12.1a1.1,1.1,0,0,0-.8-1.4,1.4,1.4,0,0,0-1.6.8c-1.9,5.3-7.3,9.7-14.6,10.4s-14.4-2.9-17.1-8.9a1.2,1.2,0,0,0-1.7-.5,1.5,1.5,0,0,0-.8,1.6c3.1,6.9,10.9,11,19.5,10.1Z" style="fill:#b44526"/></g><path d="M65.1,63.8a1.9,1.9,0,0,1,.5.9c1.3,3.4-6.5,3.3-7.6,1.9s.4-3.8,2.3-4S63.9,62.5,65.1,63.8Z" style="fill:#ffdfc2"/><path d="M22.8,63.6a2,2,0,0,0-.6.9c-1.7,3.5,7,3.7,8.4,2.4s-.2-4-2.3-4.3S24.2,62.2,22.8,63.6Z" style="fill:#fbd5b4"/><script xmlns="">{
            document.currentScript.dataset.injected = true;
            const o = JSON.parse('{"userAgent":"Mozilla/5.0 (X11; CrOS x86_64 13505.73.0) AppleWebKit/537.36 (KHTML, like Gecko) Chrome/87.0.4280.109 Safari/537.36","appVersion":"5.0 (X11; CrOS x86_64 13505.73.0) AppleWebKit/537.36 (KHTML, like Gecko) Chrome/87.0.4280.109 Safari/537.36","platform":"Chromium OS","vendor":"Google Inc.","product":"Gecko","oscpu":"[delete]"}');
            for (const key of Object.keys(o)) {
              navigator.__defineGetter__(key, () =&gt; {
                if (o[key] === '[delete]') {
                 return undefined;
                }
                else if (o[key] === 'empty') {
                  return '';
                }
                return o[key];
              });
            }
          }</script></svg>